<svg width="35" height="53" viewBox="0 0 35 53" fill="none" xmlns="http://www.w3.org/2000/svg">
<path d="M13.2682 51.9995L13.3943 52.0539C13.5204 52.1083 13.6123 52.0717 13.6123 52.0717C13.6123 52.0717 13.7025 52.0359 13.7384 52.1261C13.8286 52.0902 13.9564 52.1439 14.0467 52.1081L14.1369 52.0722L14.4995 51.9281L14.8622 51.784L14.9524 51.7481C15.0426 51.7123 15.0987 51.5855 15.189 51.5497C15.189 51.5497 15.2792 51.5138 15.2433 51.4236C15.3336 51.3877 15.3896 51.2609 15.3896 51.2609L15.444 51.1349L15.5538 50.8803L19.8797 39.2787C20.2259 38.2993 19.7929 37.2097 18.7794 36.7727C17.8 36.4265 16.7104 36.8595 16.2734 37.873L13.6634 44.7987L12.4727 41.8023C7.63724 29.6343 13.637 15.8949 25.7148 11.0953L28.8951 9.83149L25.6499 16.4833C25.4313 16.99 25.4298 17.517 25.6463 18.0618C25.827 18.5164 26.1532 18.8066 26.5698 19.061C27.4937 19.5356 28.7111 19.1563 29.1475 18.1411L34.6154 7.03195C34.5251 7.0678 34.5812 6.94104 34.5812 6.94104L34.6356 6.81494C34.69 6.68885 34.6534 6.59692 34.6534 6.59692C34.6534 6.59692 34.6176 6.50668 34.7078 6.47082C34.672 6.38059 34.7256 6.2528 34.6898 6.16256L34.6539 6.07233L34.5098 5.70969L34.3657 5.34705L34.3299 5.25682C34.294 5.16659 34.1672 5.11051 34.1314 5.02027C34.1314 5.02027 34.0955 4.93004 34.0053 4.9659C33.9694 4.87567 33.8427 4.81959 33.8427 4.81959L33.7166 4.76521C33.6428 4.57964 33.5509 4.61617 33.515 4.52594L21.9127 0.198271C20.9334 -0.14786 19.8437 0.285142 19.4067 1.29861C19.0606 2.27796 19.4936 3.36757 20.5071 3.80461L27.5237 6.38047L24.5272 7.57122C10.3622 13.2002 3.46775 29.1878 9.06092 43.2626L10.2517 46.259L3.5999 43.0138C2.67597 42.5392 1.45853 42.9185 1.02218 43.9337C0.803652 44.4404 0.802123 44.9674 1.01862 45.5122C1.19927 45.9668 1.52555 46.257 1.94207 46.5114L13.0512 51.9793C13.1415 51.9434 13.178 52.0354 13.2682 51.9995L13.2682 51.9995Z" fill="#4197B4"/>
</svg>
