<svg width="125" height="69" viewBox="0 0 125 69" fill="none" xmlns="http://www.w3.org/2000/svg">
<path d="M122.291 18.4261L111.314 26.4767C105.205 30.9564 96.6401 29.7526 92.0033 23.7628V23.7628C87.3665 17.7731 78.8012 16.5693 72.6931 21.049V21.049C66.5849 25.5286 58.0196 24.3248 53.3828 18.3351V18.3351C48.7461 12.3453 40.1808 11.1416 34.0726 15.6212V15.6212C27.9645 20.1009 19.3991 18.8971 14.7624 12.9073L6.42941 2.14285" stroke="#4197B4" stroke-width="4" stroke-linecap="round"/>
<path d="M120.211 33.2142L109.233 41.2648C103.125 45.7445 94.56 44.5407 89.9232 38.5509V38.5509C85.2864 32.5612 76.7211 31.3574 70.613 35.8371V35.8371C64.5048 40.3167 55.9395 39.1129 51.3028 33.1232V33.1232C46.666 27.1334 38.1007 25.9297 31.9925 30.4093V30.4093C25.8844 34.889 17.3191 33.6852 12.6823 27.6954L4.34933 16.9309" stroke="#4197B4" stroke-width="4" stroke-linecap="round"/>
</svg>
