<svg width="104" height="54" viewBox="0 0 104 54" fill="none" xmlns="http://www.w3.org/2000/svg">
<g clip-path="url(#clip0_2742_2290)">
<path d="M4.72183 1.24506C4.22431 0.675374 2.80343 -0.32052 1.31508 0.886368C0.324253 1.73879 0.252576 2.5912 0.180899 2.87816C0.180899 3.16089 0.0375455 4.01331 0.960911 5.08094C1.88428 6.14435 10.6837 16.0864 10.6837 16.0864C10.6837 16.0864 18.9855 25.3913 20.828 27.3071C22.6705 29.2229 26.7182 32.8436 32.9625 33.0588C37.2884 33.2023 37.2884 33.1305 37.7859 33.1305H48.2887C48.5712 33.1305 51.0546 33.2023 53.6813 32.2064C56.308 31.2105 58.9306 29.2229 60.7056 27.6616C62.4807 26.0285 67.0933 21.2009 67.3758 20.8464C69.5767 18.5761 70.6392 17.7237 72.6967 18.0065C74.8259 18.3609 77.7352 18.8589 82.8411 19.9223C82.9845 19.994 94.5497 22.4795 94.6888 22.5513C94.8322 22.5513 96.7464 23.0492 97.8089 21.2009C98.7323 19.4243 97.383 17.5802 96.2489 17.365C92.9855 16.6561 89.6504 15.8754 86.387 15.1622C86.1045 15.0905 74.4676 12.5333 71.7691 12.5333C70.9174 12.5333 68.9316 12.4615 66.659 14.3098C64.2473 16.2257 62.1181 18.7112 61.7639 18.9981C61.4097 19.3526 58.7113 22.2643 57.9313 22.9733C55.3762 25.387 52.5387 27.7333 48.4953 27.7333H35.5808C35.0116 27.7333 31.394 27.7333 29.4082 26.9526C27.2073 26.1002 25.7906 24.8933 24.0872 22.9775C22.3881 21.125 4.72183 1.24506 4.72183 1.24506Z" fill="white"/>
<path d="M6.6362 45.8409C6.56453 44.0644 5.71284 42.5748 4.15281 42.5748C2.73614 42.5748 1.66942 43.8534 1.52607 45.8409H6.6362ZM0.252751 46.3347C0.252751 43.423 1.95613 41.3636 4.15281 41.3636C6.56452 41.3636 7.98541 43.423 7.98541 46.2629V46.8326H1.59775C1.7411 48.9637 3.01863 50.0988 4.50698 50.0988C5.56948 50.0988 6.28203 49.6726 6.99037 49.0354L7.77038 49.8878C6.91869 50.7402 5.92365 51.3099 4.50698 51.3099C2.16694 51.3099 0.248535 49.3941 0.248535 46.4106V46.3389L0.252751 46.3347Z" fill="white"/>
<path d="M10.9663 41.5787H12.3155V43.7098C12.8847 42.3594 14.0189 41.4395 15.5789 41.507V42.9291H15.5072C13.7322 42.9291 12.3155 44.2077 12.3155 46.6215V51.1663H10.9663V41.5787Z" fill="white"/>
<path d="M24.3741 45.8409C24.3741 43.7816 22.9532 42.5029 21.5366 42.5029C20.0482 42.5029 18.8424 43.7098 18.8424 45.8409V45.9126C18.8424 47.9719 20.0482 49.2505 21.5366 49.2505C23.0249 49.2505 24.3741 47.9719 24.3741 45.8409ZM18.4123 51.7361C19.3357 52.3057 20.3982 52.6602 21.4649 52.6602C23.24 52.6602 24.3741 51.7361 24.3741 49.8202V48.3981C23.7333 49.4615 22.7424 50.3857 21.2541 50.3857C19.3399 50.3857 17.4932 48.7526 17.4932 45.9126V45.8409C17.4932 43.0009 19.3399 41.3678 21.2541 41.3678C22.7424 41.3678 23.7375 42.2202 24.3741 43.2161V41.5113H25.7233V49.7485C25.7233 51.0271 25.3692 52.0188 24.6608 52.6602C23.9525 53.3692 22.8858 53.7236 21.5408 53.7236C20.2633 53.7236 19.0574 53.3692 17.9232 52.7277L18.4207 51.7318L18.4123 51.7361Z" fill="white"/>
<path d="M35.8675 46.2629C35.8675 44.1319 34.59 42.5705 32.9583 42.5705C31.3266 42.5705 30.1207 44.1319 30.1207 46.2629V46.3347C30.1207 48.4657 31.3982 50.0271 33.0299 50.0271C34.6616 50.0271 35.9392 48.394 35.9392 46.3347L35.8675 46.2629ZM28.7715 46.2629C28.7715 43.4947 30.5465 41.3636 33.0299 41.3636C35.5133 41.3636 37.2167 43.4947 37.2167 46.2629V46.3347C37.2167 49.1029 35.4416 51.234 32.9583 51.234C30.4749 51.234 28.7715 49.1029 28.7715 46.3347V46.2629Z" fill="white"/>
<path d="M40.3414 41.5789H41.6189V43.0685C42.1164 42.1443 42.8965 41.3636 44.3131 41.3636C45.5907 41.3636 46.514 42.0726 46.9399 43.0685C47.5091 42.1443 48.4282 41.3636 49.8491 41.3636C51.6958 41.3636 52.9017 42.6423 52.9017 44.8451V51.023H51.5525V45.1278C51.5525 43.423 50.7725 42.4988 49.4949 42.4988C48.2891 42.4988 47.2266 43.4947 47.2266 45.1953V51.0188H45.8774V45.1236C45.8774 43.4187 45.0974 42.4946 43.8198 42.4946C42.5423 42.4946 41.5515 43.6297 41.5515 45.1911V50.9428H40.2739V41.5704H40.3456L40.3414 41.5789Z" fill="white"/>
<path d="M62.9744 46.2629C62.9744 44.1319 61.6969 42.5705 60.0652 42.5705C58.4335 42.5705 57.2276 44.1319 57.2276 46.2629V46.3347C57.2276 48.4657 58.5052 50.0271 60.1369 50.0271C61.7686 50.0271 63.0461 48.394 63.0461 46.3347V46.2629H62.9744ZM55.8784 46.2629C55.8784 43.4947 57.6535 41.3636 60.1369 41.3636C62.6203 41.3636 64.3236 43.4947 64.3236 46.2629V46.3347C64.3236 49.1029 62.5486 51.234 60.0652 51.234C57.5818 51.234 55.8784 49.1029 55.8784 46.3347V46.2629Z" fill="white"/>
<path d="M67.7978 48.8917V42.7855H66.6636V41.6504H67.7978V38.8821H69.147V41.6504H71.6304V42.7855H69.147V48.6807C69.147 49.6766 69.7162 50.0311 70.4962 50.0311C70.8503 50.0311 71.2045 49.9593 71.6304 49.7484V50.8835C71.2045 51.0945 70.707 51.238 70.2095 51.238C68.8603 51.238 67.7978 50.5965 67.7978 48.8959" fill="white"/>
<path d="M74.7504 51.0946H76.0996V41.5788H74.7504V51.0946ZM74.6787 39.5912H76.1671V38.0299H74.6787V39.5912Z" fill="white"/>
<path d="M86.3875 46.2629C86.3875 44.1319 85.11 42.5705 83.4783 42.5705C81.8466 42.5705 80.6407 44.1319 80.6407 46.2629V46.3347C80.6407 48.4657 81.9183 50.0271 83.55 50.0271C85.1817 50.0271 86.4592 48.394 86.4592 46.3347V46.2629H86.3875ZM79.2915 46.2629C79.2915 43.4947 81.0666 41.3636 83.55 41.3636C86.0333 41.3636 87.7367 43.4947 87.7367 46.2629V46.3347C87.7367 49.1029 85.9617 51.234 83.4783 51.234C80.9949 51.234 79.2915 49.1029 79.2915 46.3347V46.2629Z" fill="white"/>
<path d="M90.8567 41.5788H92.2059V43.1402C92.7034 42.216 93.6268 41.4354 95.0434 41.4354C96.9576 41.4354 98.1635 42.7857 98.1635 44.9168V51.1664H96.7426V45.2712C96.7426 43.5664 95.9626 42.6423 94.5417 42.6423C93.1208 42.6423 92.13 43.7057 92.13 45.3388V51.0905H90.7808L90.8524 41.5746L90.8567 41.5788Z" fill="white"/>
<path d="M101.359 41.3634C101.642 41.3634 101.785 41.22 101.785 41.009C101.785 40.798 101.642 40.6545 101.359 40.6545H100.79V41.3634H101.359ZM100.364 40.3H101.359C101.642 40.3 101.857 40.3718 102.068 40.511C102.211 40.6545 102.283 40.7937 102.283 41.009C102.283 41.3634 102.068 41.5786 101.785 41.6504L102.355 42.5028H101.857L101.288 41.7221H100.79V42.5028H100.364V40.3ZM103.13 41.4352C103.13 40.3718 102.279 39.5193 101.216 39.5193C100.154 39.5193 99.3019 40.3718 99.3019 41.4352C99.3019 42.4986 100.154 43.351 101.216 43.351C102.279 43.351 103.13 42.4986 103.13 41.4352ZM99.0869 41.4352C99.0869 40.2283 100.082 39.3041 101.216 39.3041C102.422 39.3041 103.345 40.2283 103.345 41.4352C103.345 42.6421 102.35 43.5662 101.216 43.5662C100.082 43.5662 99.0869 42.6421 99.0869 41.4352Z" fill="white"/>
</g>
<defs>
<clipPath id="clip0_2742_2290">
<rect width="103.172" height="53.4069" fill="white" transform="translate(0.172363 0.317245)"/>
</clipPath>
</defs>
</svg>
