<svg width="66" height="29" viewBox="0 0 66 29" fill="none" xmlns="http://www.w3.org/2000/svg">
<path d="M1.28857 20.5898H64.6217" stroke="#4197B4" stroke-width="1.10345" stroke-linecap="round" stroke-linejoin="round"/>
<path d="M1.28857 24.4043H64.6217" stroke="#4197B4" stroke-width="1.10345" stroke-linecap="round" stroke-linejoin="round"/>
<path d="M8.33287 5.85449H57.7597C61.3857 5.85449 64.3303 8.80025 64.3303 12.4276V13.655H1.76514V12.4276C1.76514 8.80025 4.70979 5.85449 8.33575 5.85449H8.33287Z" fill="#F5F8FA" stroke="#1D2020" stroke-width="1.10345" stroke-linecap="round" stroke-linejoin="round"/>
<path d="M9.55419 1.28906H16.6069C19.2254 1.28906 21.353 3.41752 21.353 6.03693V8.51772H4.80811V6.03693C4.80811 3.41752 6.93287 1.28906 9.55419 1.28906Z" fill="#F5F8FA" stroke="#1D2020" stroke-width="1.10345" stroke-linecap="round" stroke-linejoin="round"/>
<path d="M64.7115 27.6158V16.6992H1.37842V28.3869" stroke="#1D2020" stroke-width="1.10345" stroke-linecap="round" stroke-linejoin="round"/>
<path d="M33.1831 18.75V27.1425" stroke="#1D2020" stroke-width="0.551724" stroke-linecap="round" stroke-linejoin="round"/>
<path d="M32.3198 19.0038L33.183 17.5078L34.0462 19.0038H32.3198Z" fill="#1D2020"/>
<path d="M32.3198 26.8877L33.183 28.3866L34.0462 26.8877H32.3198Z" fill="#1D2020"/>
</svg>
