<svg width="64" height="28" viewBox="0 0 64 28" fill="none" xmlns="http://www.w3.org/2000/svg">
<g clip-path="url(#clip0_5634_7550)">
<path d="M58.9738 9.51981H48.2613L40.3553 14.8394H28.2304L22.3055 10.9873L10.3823 3.19136C9.49269 2.63209 8.42006 2.44186 7.39242 2.66109C6.36477 2.88032 5.46315 3.49173 4.87926 4.36533L3.04492 7.08016L18.3433 17.0773L25.2771 21.5347L26.0108 22.0483H42.1897L49.6738 16.7104H62.9727V13.482C62.9751 12.9514 62.8724 12.4255 62.6704 11.9348C62.4685 11.4441 62.1713 10.9982 61.7961 10.623C61.4209 10.2478 60.9751 9.95063 60.4844 9.74868C59.9936 9.54674 59.4678 9.44402 58.9371 9.44645" fill="white"/>
<path d="M26.1761 21.535H42.0431L49.3805 16.3255C49.4687 16.2542 49.5788 16.2153 49.6923 16.2155H62.5327V13.519C62.5327 12.5898 62.1635 11.6986 61.5065 11.0416C60.8494 10.3845 59.9583 10.0154 59.0291 10.0154H48.4266L40.594 15.2433C40.4991 15.2768 40.3955 15.2768 40.3005 15.2433H28.2306C28.1343 15.2681 28.0333 15.2681 27.9371 15.2433L10.089 3.59524C9.30598 3.09382 8.35646 2.92237 7.44754 3.1183C6.99736 3.20539 6.56979 3.38379 6.19121 3.64248C5.81263 3.90118 5.49106 4.2347 5.24634 4.62246L3.76052 6.86035L25.5708 21.0765C25.7436 21.2194 25.9276 21.3482 26.1211 21.4617L26.1761 21.535ZM42.1715 22.5439H26.011C25.9151 22.5715 25.8134 22.5715 25.7175 22.5439L24.9655 22.012L2.7333 7.52072C2.61202 7.43946 2.52664 7.31466 2.49483 7.17219C2.44183 7.04289 2.44183 6.89793 2.49483 6.76863L4.32917 4.05382C4.65791 3.54907 5.08286 3.11403 5.57976 2.77356C6.07667 2.43308 6.63578 2.19384 7.22517 2.06949C7.81456 1.94514 8.42266 1.93811 9.01476 2.04883C9.60686 2.15955 10.1713 2.38583 10.676 2.71475L28.3957 14.2711H40.1354L47.9497 9.02487C48.052 8.99847 48.1593 8.99847 48.2615 9.02487H58.9741C60.1903 9.02487 61.3567 9.50802 62.2167 10.368C63.0767 11.228 63.5599 12.3945 63.5599 13.6107V16.8391C63.5624 16.9105 63.5504 16.9817 63.5248 17.0484C63.4992 17.115 63.4604 17.1759 63.4107 17.2272C63.3611 17.2786 63.3016 17.3194 63.2358 17.3473C63.1701 17.3751 63.0994 17.3895 63.0279 17.3894H49.8757L42.5384 22.6173C42.4361 22.6437 42.3288 22.6437 42.2266 22.6173" fill="#1D2020"/>
<path d="M21.8472 12.9133L9.00684 4.4753L10.2725 2.64096C10.9141 1.65794 11.9188 0.969042 13.067 0.724968C14.2152 0.480894 15.4133 0.701522 16.3992 1.33859L21.9022 5.00726C22.8835 5.6551 23.569 6.66442 23.8095 7.81539C24.05 8.96635 23.826 10.1657 23.1863 11.1523L21.8472 12.9133Z" fill="white"/>
<path d="M9.667 4.32918L21.7002 12.1801L22.6724 10.676C23.2284 9.81076 23.4208 8.76122 23.2079 7.75506C22.995 6.7489 22.3939 5.86725 21.5352 5.30138L16.0321 1.63271C15.6052 1.35263 15.1269 1.15982 14.6251 1.06538C14.1232 0.970947 13.6077 0.976753 13.1081 1.08247C12.6085 1.18819 12.1348 1.39173 11.7142 1.68135C11.2936 1.97098 10.9345 2.34095 10.6575 2.76999L9.667 4.32918ZM21.847 13.5009C21.751 13.5274 21.6495 13.5274 21.5535 13.5009L8.71314 5.06291C8.59273 4.98404 8.50802 4.86114 8.47715 4.72055C8.44629 4.57996 8.47175 4.43288 8.54805 4.31084L9.81374 2.38478C10.5338 1.28049 11.663 0.507455 12.953 0.235695C14.243 -0.036064 15.5881 0.215707 16.6925 0.935649L22.1955 4.60432C23.2959 5.32762 24.0658 6.45661 24.3372 7.74516C24.6087 9.03371 24.3597 10.3773 23.6446 11.4831L22.379 13.3174C22.3402 13.3789 22.2893 13.4317 22.2294 13.4727C22.1694 13.5137 22.1017 13.542 22.0304 13.5559H21.9204" fill="#1D2020"/>
<path d="M63.3762 27.8082H1.00875C0.929351 27.8229 0.847701 27.8199 0.769582 27.7995C0.691463 27.7791 0.618787 27.7417 0.55672 27.6901C0.494653 27.6385 0.444713 27.5738 0.410438 27.5007C0.376164 27.4276 0.358398 27.3478 0.358398 27.2671C0.358398 27.1864 0.376164 27.1066 0.410438 27.0335C0.444713 26.9604 0.494653 26.8957 0.55672 26.8441C0.618787 26.7924 0.691463 26.7551 0.769582 26.7347C0.847701 26.7143 0.929351 26.7113 1.00875 26.726H63.3762C63.4556 26.7113 63.5372 26.7143 63.6153 26.7347C63.6935 26.7551 63.7661 26.7924 63.8282 26.8441C63.8903 26.8957 63.9402 26.9604 63.9745 27.0335C64.0088 27.1066 64.0265 27.1864 64.0265 27.2671C64.0265 27.3478 64.0088 27.4276 63.9745 27.5007C63.9402 27.5738 63.8903 27.6385 63.8282 27.6901C63.7661 27.7417 63.6935 27.7791 63.6153 27.7995C63.5372 27.8199 63.4556 27.8229 63.3762 27.8082Z" fill="#1D2020"/>
<path d="M44.1157 25.4057H24.4149C24.3199 25.4393 24.2164 25.4393 24.1214 25.4057L0.27503 9.8872C0.157624 9.80549 0.0766437 9.68128 0.0492506 9.54089C0.0218575 9.4005 0.0502011 9.25496 0.12828 9.13511C0.203715 9.01595 0.323384 8.93163 0.460973 8.90067C0.598562 8.86971 0.742814 8.89466 0.862017 8.97003L24.6167 24.4151H44.0239L51.0678 19.4624C51.1688 19.4275 51.2786 19.4275 51.3796 19.4624H63.4679C63.609 19.4624 63.7443 19.5185 63.8441 19.6182C63.9438 19.718 63.9999 19.8533 63.9999 19.9944C63.9999 20.1355 63.9438 20.2708 63.8441 20.3705C63.7443 20.4703 63.609 20.5263 63.4679 20.5263H51.4714L44.4275 25.4974C44.3252 25.5238 44.2179 25.5238 44.1157 25.4974" fill="#4197B4"/>
</g>
<defs>
<clipPath id="clip0_5634_7550">
<rect width="64" height="27.8085" fill="white"/>
</clipPath>
</defs>
</svg>
