<svg width="64" height="27" viewBox="0 0 64 27" fill="none" xmlns="http://www.w3.org/2000/svg">
<g clip-path="url(#clip0_5634_7577)">
<path d="M59.4539 8.91832H49.1996L41.5894 14.0515H30.0517L24.3846 10.3315L12.9706 2.83697C11.1821 1.66279 8.7905 2.17195 7.62564 3.97479L5.93506 6.59073L20.5859 16.2102L27.2297 20.5719C27.4359 20.7381 27.6627 20.9044 27.9256 21.068H43.4295L50.5887 15.9349H63.3196V12.8124C63.3196 10.6614 61.5904 8.91832 59.4565 8.91832H59.4539Z" fill="#F5F8FA" stroke="#1D2020" stroke-width="1.10345" stroke-linecap="round" stroke-linejoin="round"/>
<path d="M18.6445 0.952985L23.9181 4.41965C25.876 5.7067 26.4294 8.35619 25.1526 10.3298L23.9433 12.1989L11.5721 4.0665L12.7814 2.19736C14.0582 0.223786 16.6866 -0.334065 18.6445 0.952985Z" fill="#F5F8FA" stroke="#1D2020" stroke-width="1.10345" stroke-linecap="round" stroke-linejoin="round"/>
<path d="M3.98389 26.0332H63.6621" stroke="#1D2020" stroke-width="1.10345" stroke-linecap="round" stroke-linejoin="round"/>
<path d="M3.56152 8.74707L26.3947 23.7205H45.2386L52.1143 18.8446H63.7422" stroke="#4197B4" stroke-width="1.10345" stroke-linecap="round" stroke-linejoin="round"/>
<path d="M0.257812 18.374L20.4134 23.8293H63.6548" stroke="#4197B4" stroke-width="1.10345" stroke-linecap="round" stroke-linejoin="round"/>
</g>
<defs>
<clipPath id="clip0_5634_7577">
<rect width="64" height="26.2919" fill="white"/>
</clipPath>
</defs>
</svg>
