<svg width="160" height="80" viewBox="0 0 160 80" fill="none" xmlns="http://www.w3.org/2000/svg">
<g clip-path="url(#clip0_1_9042)">
<path d="M136.135 76.6753C140.265 74.6909 143.753 71.5906 146.205 67.7268C148.657 63.863 149.972 59.3907 150.003 54.818V54.3543L150.385 54.0939C152.81 52.413 154.79 50.1715 156.157 47.561C157.525 44.9504 158.238 42.0485 158.236 39.1031V19.9581C158.25 15.156 156.353 10.5447 152.963 7.13542C149.573 3.72618 144.966 1.79743 140.153 1.77222H19.8664C15.0528 1.79743 10.4457 3.72618 7.05567 7.13542C3.66564 10.5447 1.76945 15.156 1.783 19.9581V39.1031C1.76946 43.9045 3.66585 48.5153 7.05606 51.9235C10.4463 55.3317 15.0534 57.2591 19.8664 57.2826H125.119C128.299 57.2958 131.346 58.5575 133.601 60.7948C135.855 63.032 137.136 66.0649 137.166 69.2371C137.174 71.7463 136.827 74.2439 136.135 76.6563V76.6753ZM19.8664 0H140.153C145.436 0.0268936 150.492 2.14331 154.213 5.8849C157.934 9.62649 160.015 14.6877 160 19.9581V39.1031C159.998 42.2534 159.251 45.3589 157.819 48.1669C156.388 50.9749 154.312 53.406 151.761 55.2626C151.635 60.4392 149.975 65.4626 146.99 69.6987C144.005 73.9348 139.829 77.1936 134.989 79.0637L133.206 79.7751L133.887 77.9457C134.913 75.2071 135.437 72.3068 135.435 69.3832C135.436 66.6518 134.351 64.0315 132.416 62.0983C130.482 60.1651 127.857 59.0772 125.119 59.0739H19.8664C14.5778 59.052 9.5143 56.9361 5.78901 53.1912C2.06372 49.4463 -0.0184902 44.379 0.000123733 39.1031V19.9581C-0.0151078 14.6844 2.0686 9.62034 5.79352 5.8782C9.51844 2.13605 14.58 0.0218606 19.8664 0Z" fill="#1D2020"/>
<path d="M26.8003 37.9021V28.2788C26.8003 25.6808 25.7688 24.5057 23.6166 24.5057C21.8669 24.5806 20.2174 25.3406 19.0257 26.6209V37.9021H17.02V15.9939L19.0257 15.5684V24.963C20.364 23.535 22.207 22.6829 24.1642 22.5874C27.0423 22.5874 28.787 24.4421 28.787 27.669V37.9021H26.8003Z" fill="#1D2020"/>
<path d="M41.6045 28.8955C41.6303 28.6848 41.641 28.4725 41.6364 28.2603C41.6364 25.9862 40.4074 24.4491 38.0833 24.4491C35.4281 24.4491 33.7153 26.4944 33.397 28.9653L41.6045 28.8955ZM33.2378 30.6867C33.3014 34.0343 35.3072 36.4036 38.4145 36.4036C39.9359 36.4124 41.4279 35.9847 42.7124 35.1713L43.1009 37.0261C41.6625 37.8776 40.0168 38.3172 38.3444 38.2965C34.0783 38.2965 31.2002 35.0824 31.2002 30.5597C31.2002 25.8783 34.1738 22.5625 38.2043 22.5625C41.4708 22.5625 43.6039 24.7095 43.6039 28.057C43.6016 28.8597 43.4924 29.6586 43.2791 30.4327L33.2569 30.4962L33.2378 30.6867Z" fill="#1D2020"/>
<path d="M47.3926 37.9021V15.9939L49.3983 15.5684V37.9021H47.3926Z" fill="#1D2020"/>
<path d="M54.0527 37.9021V15.9939L56.0585 15.5684V37.9021H54.0527Z" fill="#1D2020"/>
<path d="M66.0873 24.4109C62.9482 24.4109 60.8788 26.9136 60.8788 30.4263C60.8788 34.066 62.98 36.5052 66.1191 36.5052C69.2583 36.5052 71.3213 34.0025 71.3213 30.4898C71.3213 26.8501 69.22 24.4109 66.0873 24.4109ZM66.0236 38.3219C61.9166 38.3219 58.873 35.2665 58.873 30.4898C58.873 25.7131 62.0567 22.5879 66.1828 22.5879C70.3089 22.5879 73.2952 25.6432 73.2952 30.4263C73.2952 35.2094 70.1115 38.3219 66.0236 38.3219Z" fill="#1D2020"/>
<path d="M93.7915 28.8955C93.8225 28.6852 93.8352 28.4727 93.8297 28.2603C93.8297 25.9862 92.6008 24.4491 90.2703 24.4491C87.6215 24.4491 85.9022 26.4944 85.5839 28.9653L93.7915 28.8955ZM85.4502 30.6867C85.5202 34.0343 87.5196 36.4036 90.6269 36.4036C92.1483 36.4124 93.6403 35.9847 94.9249 35.1713L95.3133 37.0261C93.8769 37.8768 92.2335 38.3163 90.5632 38.2965C86.2907 38.2965 83.4126 35.0824 83.4126 30.5597C83.4126 25.8783 86.3925 22.5625 90.4167 22.5625C93.6832 22.5625 95.8163 24.7095 95.8163 28.057C95.8129 28.8592 95.7059 29.6577 95.4979 30.4327L85.4693 30.4962L85.4502 30.6867Z" fill="#1D2020"/>
<path d="M100.999 37.9026H99V23.0135L100.999 22.5879V25.7639C101.974 23.8583 103.425 22.5879 105.367 22.5879C106.274 22.5919 107.164 22.8281 107.953 23.2739L107.437 25.1795C106.756 24.765 105.974 24.5453 105.176 24.5443C103.623 24.5443 102.165 25.7194 100.999 28.3555V37.9026Z" fill="#1D2020"/>
<path d="M115.135 32.0144C117.395 32.0144 118.815 30.3947 118.815 28.1143C118.815 25.8339 117.542 24.2459 115.033 24.2459C112.741 24.2459 111.315 25.9038 111.315 28.2159C111.286 28.7239 111.365 29.2321 111.547 29.7075C111.729 30.1828 112.009 30.6144 112.37 30.9742C112.731 31.334 113.163 31.6137 113.64 31.7951C114.116 31.9766 114.626 32.0556 115.135 32.0271V32.0144ZM110.041 41.263C110.041 43.0161 111.951 44.3183 115.084 44.3183C118.217 44.3183 120.649 42.8192 120.649 40.8056C120.649 39.0525 119.096 38.43 116.154 38.43C115.154 38.43 113.893 38.43 113.053 38.3347C111.27 38.8238 110.041 39.9926 110.041 41.263ZM109.303 35.5461C109.303 34.3139 110.366 33.2404 111.722 32.7195C110.965 32.2313 110.347 31.5558 109.928 30.7589C109.51 29.962 109.305 29.0706 109.334 28.1714C109.334 24.9954 111.658 22.5753 115.154 22.5753C116.383 22.5684 117.592 22.8885 118.656 23.5027L122.763 23.1724L122.859 25.1923L119.592 24.862C120.374 25.805 120.798 26.9924 120.789 28.2159C120.789 31.3919 118.331 33.6723 115.059 33.6723C114.294 33.6588 113.539 33.506 112.83 33.2213C112.053 33.5453 111.181 34.1614 111.181 35.0062C111.181 35.9527 111.894 36.5371 114.543 36.5371H116.453C120.751 36.5371 122.598 37.998 122.598 40.4372C122.598 43.7212 118.943 45.9635 114.804 45.9635C110.824 45.9635 108.112 44.204 108.112 41.606C108.157 40.7279 108.495 39.8899 109.072 39.2249C109.648 38.5599 110.431 38.1058 111.296 37.9345C110.022 37.4772 109.296 36.6641 109.296 35.5589" fill="#1D2020"/>
<path d="M131.716 24.055C128.322 24.055 125.985 26.7165 125.985 30.2292C125.985 33.7419 128.348 36.4034 131.716 36.4034C135.084 36.4034 137.536 33.7419 137.536 30.2292C137.536 26.7165 135.142 24.055 131.716 24.055ZM131.716 38.3217C127.259 38.3217 123.954 34.9742 123.954 30.2292C123.954 25.4842 127.284 22.1367 131.716 22.1367C136.148 22.1367 139.573 25.4842 139.573 30.2292C139.573 34.9742 136.211 38.3217 131.748 38.3217" fill="#1D2020"/>
<path d="M142.273 38.3216C141.834 38.31 141.418 38.1258 141.115 37.8093C140.812 37.4927 140.647 37.0695 140.656 36.632C140.656 36.2041 140.826 35.7937 141.129 35.4911C141.433 35.1885 141.844 35.0186 142.273 35.0186C142.702 35.0186 143.113 35.1885 143.417 35.4911C143.72 35.7937 143.89 36.2041 143.89 36.632C143.899 37.0695 143.734 37.4927 143.431 37.8093C143.128 38.1258 142.711 38.31 142.273 38.3216Z" fill="#1D2020"/>
</g>
<defs>
<clipPath id="clip0_1_9042">
<rect width="160" height="80" fill="white"/>
</clipPath>
</defs>
</svg>
