<svg width="136" height="71" viewBox="0 0 136 71" fill="none" xmlns="http://www.w3.org/2000/svg">
<g clip-path="url(#clip0_2894_3853)">
<path d="M5.99736 1.82253C5.34154 1.07159 3.46855 -0.241183 1.50664 1.34971C0.200551 2.47336 0.106068 3.597 0.0115847 3.97525C0.0115847 4.34794 -0.177381 5.47159 1.03978 6.87892C2.25695 8.28069 13.8561 21.3861 13.8561 21.3861C13.8561 21.3861 24.7995 33.6516 27.2283 36.177C29.657 38.7024 34.9925 43.4751 43.2237 43.7588C48.926 43.9479 48.926 43.8534 49.5818 43.8534H63.4264C63.7987 43.8534 67.0723 43.9479 70.5348 42.6352C73.9974 41.3224 77.4543 38.7024 79.7942 36.6443C82.134 34.4916 88.2143 28.128 88.5866 27.6607C91.4878 24.668 92.8884 23.5444 95.6006 23.9171C98.4073 24.3844 102.242 25.0407 108.973 26.4425C109.162 26.5371 124.407 29.8134 124.59 29.908C124.779 29.908 127.302 30.5644 128.703 28.128C129.92 25.7861 128.142 23.3553 126.647 23.0716C122.345 22.1371 117.949 21.108 113.647 20.1679C113.275 20.0734 97.9349 16.7024 94.3779 16.7024C93.2552 16.7024 90.6375 16.6079 87.6418 19.0443C84.4627 21.5697 81.656 24.846 81.1892 25.2243C80.7223 25.6916 77.1653 29.5297 76.1371 30.4643C72.7691 33.646 69.0287 36.7388 63.6987 36.7388H46.6751C45.9248 36.7388 41.1562 36.7388 38.5384 35.7098C35.6372 34.5861 33.7698 32.9952 31.5245 30.4698C29.2847 28.0278 5.99736 1.82253 5.99736 1.82253Z" fill="white"/>
<path d="M8.5202 60.608C8.42572 58.2661 7.30304 56.3025 5.24664 56.3025C3.37921 56.3025 1.97309 57.988 1.78412 60.608H8.5202ZM0.105655 61.2588C0.105655 57.4206 2.35102 54.7061 5.24664 54.7061C8.42572 54.7061 10.2987 57.4206 10.2987 61.1642V61.9152H1.8786C2.06757 64.7243 3.75159 66.2206 5.7135 66.2206C7.11407 66.2206 8.05335 65.6588 8.98706 64.8188L10.0153 65.9425C8.89258 67.0661 7.58093 67.8171 5.7135 67.8171C2.62891 67.8171 0.100098 65.2916 0.100098 61.3589V61.2643L0.105655 61.2588Z" fill="white"/>
<path d="M14.228 54.9898H16.0065V57.7989C16.7568 56.0189 18.2519 54.8062 20.3083 54.8952V56.7698H20.2138C17.874 56.7698 16.0065 58.4553 16.0065 61.6371V67.628H14.228V54.9898Z" fill="white"/>
<path d="M31.9019 60.6082C31.9019 57.8937 30.0289 56.2082 28.1615 56.2082C26.1996 56.2082 24.61 57.7991 24.61 60.6082V60.7028C24.61 63.4174 26.1996 65.1028 28.1615 65.1028C30.1234 65.1028 31.9019 63.4173 31.9019 60.6082ZM24.0431 68.3792C25.2603 69.1301 26.6609 69.5974 28.067 69.5974C30.4069 69.5974 31.9019 68.3792 31.9019 65.8538V63.9792C31.0571 65.3809 29.751 66.5991 27.7891 66.5991C25.2659 66.5991 22.8315 64.4464 22.8315 60.7028V60.6082C22.8315 56.8646 25.2659 54.7119 27.7891 54.7119C29.751 54.7119 31.0627 55.8356 31.9019 57.1483V54.901H33.6804V65.7592C33.6804 67.4447 33.2136 68.7519 32.2798 69.5974C31.3461 70.5319 29.94 70.9991 28.1671 70.9991C26.483 70.9991 24.8935 70.5319 23.3984 69.6864L24.0543 68.3736L24.0431 68.3792Z" fill="white"/>
<path d="M47.0526 61.1642C47.0526 58.3551 45.3685 56.297 43.2177 56.297C41.0668 56.297 39.4772 58.3551 39.4772 61.1642V61.2588C39.4772 64.0679 41.1613 66.126 43.3121 66.126C45.463 66.126 47.147 63.9733 47.147 61.2588L47.0526 61.1642ZM37.6987 61.1642C37.6987 57.5152 40.0386 54.7061 43.3121 54.7061C46.5857 54.7061 48.8311 57.5152 48.8311 61.1642V61.2588C48.8311 64.9078 46.4912 67.7169 43.2177 67.7169C39.9441 67.7169 37.6987 64.9078 37.6987 61.2588V61.1642Z" fill="white"/>
<path d="M52.9493 54.9897H54.6333V56.9533C55.2891 55.7351 56.3173 54.7061 58.1848 54.7061C59.8688 54.7061 61.0859 55.6406 61.6473 56.9533C62.3976 55.7351 63.6092 54.7061 65.4822 54.7061C67.9165 54.7061 69.506 56.3915 69.506 59.2952V67.4388H67.7275V59.6679C67.7275 57.4206 66.6993 56.2024 65.0153 56.2024C63.4258 56.2024 62.0252 57.5152 62.0252 59.7569V67.4332H60.2467V59.6623C60.2467 57.415 59.2185 56.1968 57.5345 56.1968C55.8505 56.1968 54.5444 57.6932 54.5444 59.7513V67.3331H52.8604V54.9786H52.9548L52.9493 54.9897Z" fill="white"/>
<path d="M82.784 61.1642C82.784 58.3551 81.1 56.297 78.9491 56.297C76.7982 56.297 75.2087 58.3551 75.2087 61.1642V61.2588C75.2087 64.0679 76.8927 66.126 79.0436 66.126C81.1945 66.126 82.8785 63.9733 82.8785 61.2588V61.1642H82.784ZM73.4302 61.1642C73.4302 57.5152 75.77 54.7061 79.0436 54.7061C82.3171 54.7061 84.5625 57.5152 84.5625 61.1642V61.2588C84.5625 64.9078 82.2227 67.7169 78.9491 67.7169C75.6755 67.7169 73.4302 64.9078 73.4302 61.2588V61.1642Z" fill="white"/>
<path d="M89.142 64.629V56.58H87.647V55.0836H89.142V51.4346H90.9205V55.0836H94.1941V56.58H90.9205V64.3509C90.9205 65.6636 91.6708 66.1309 92.699 66.1309C93.1659 66.1309 93.6328 66.0363 94.1941 65.7582V67.2545C93.6328 67.5327 92.9769 67.7218 92.3211 67.7218C90.5426 67.7218 89.142 66.8763 89.142 64.6346" fill="white"/>
<path d="M98.3069 67.5333H100.085V54.9897H98.3069V67.5333ZM98.2124 52.3697H100.174V50.3115H98.2124V52.3697Z" fill="white"/>
<path d="M113.646 61.1642C113.646 58.3551 111.962 56.297 109.811 56.297C107.661 56.297 106.071 58.3551 106.071 61.1642V61.2588C106.071 64.0679 107.755 66.126 109.906 66.126C112.057 66.126 113.741 63.9733 113.741 61.2588V61.1642H113.646ZM104.292 61.1642C104.292 57.5152 106.632 54.7061 109.906 54.7061C113.179 54.7061 115.425 57.5152 115.425 61.1642V61.2588C115.425 64.9078 113.085 67.7169 109.811 67.7169C106.538 67.7169 104.292 64.9078 104.292 61.2588V61.1642Z" fill="white"/>
<path d="M119.538 54.9899H121.316V57.0481C121.972 55.8299 123.189 54.8008 125.056 54.8008C127.58 54.8008 129.169 56.5808 129.169 59.3899V67.6281H127.296V59.8572C127.296 57.6099 126.268 56.3917 124.395 56.3917C122.522 56.3917 121.216 57.7934 121.216 59.9462V67.528H119.438L119.532 54.9843L119.538 54.9899Z" fill="white"/>
<path d="M133.382 54.7057C133.755 54.7057 133.944 54.5166 133.944 54.2385C133.944 53.9604 133.755 53.7712 133.382 53.7712H132.632V54.7057H133.382ZM132.071 53.304H133.382C133.755 53.304 134.038 53.3985 134.316 53.5821C134.505 53.7712 134.6 53.9548 134.6 54.2385C134.6 54.7057 134.316 54.9894 133.944 55.084L134.694 56.2076H134.038L133.288 55.1786H132.632V56.2076H132.071V53.304ZM135.717 54.8003C135.717 53.3985 134.594 52.2749 133.193 52.2749C131.793 52.2749 130.67 53.3985 130.67 54.8003C130.67 56.2021 131.793 57.3257 133.193 57.3257C134.594 57.3257 135.717 56.2021 135.717 54.8003ZM130.387 54.8003C130.387 53.2094 131.698 51.9912 133.193 51.9912C134.783 51.9912 136 53.2094 136 54.8003C136 56.3912 134.688 57.6094 133.193 57.6094C131.698 57.6094 130.387 56.3912 130.387 54.8003Z" fill="white"/>
</g>
<defs>
<clipPath id="clip0_2894_3853">
<rect width="136" height="70.4" fill="white" transform="translate(0 0.599609)"/>
</clipPath>
</defs>
</svg>
